<svg xmlns="http://www.w3.org/2000/svg"
     viewBox="0 0 107.553 151.922">
    <rect x="0" y="0" width="107.553" height="151.922" fill="rgba(0,0,255,.2"/>
    <path
            d="M121.576-20.253c-1.236-.222-2.32-.257-3.261-.105-1.825.296-5.605-.257-7.136-1.043-1.135-.582-1.985-.745-7.727-1.486-1.673-.216-3.221-.47-3.44-.567s-1.468-.26-2.778-.363c-1.31-.105-3.128-.346-4.042-.538-1.352-.283-1.905-.285-2.97-.012-.971.249-1.532.262-2.175.05-.477-.157-1.164-.283-1.528-.28-2.486.016-6.392.222-7.295.384-.918.164-1.186.099-1.821-.448-.628-.54-.7-.726-.455-1.182.159-.298.917-.811 1.685-1.142 1.24-.533 1.528-.566 2.59-.294 1.047.268 7.443.194 7.925-.092.082-.048.744.007 1.472.122 1.744.276 2.719.07 2.938-.62.191-.602.575-5.966.762-10.628.182-4.566.328-7 .535-8.918.12-1.113.082-2.086-.101-2.61-.16-.461-.367-2.163-.458-3.783-.1-1.762-.312-3.18-.53-3.527-.485-.778-1.9-1.135-4.503-1.136-2.635-.002-5.714-.66-6.344-1.356-.665-.735-.292-.937 2.41-1.305 3.034-.414 5.119-.357 7.243.198 1.622.424 1.702.422 2.05-.055.2-.272.363-.922.363-1.444 0-1.715-.537-5.413-.933-6.43-.214-.549-.39-1.404-.39-1.901s-.195-2.061-.434-3.476c-.332-1.965-.363-2.686-.132-3.056.426-.683.375-2.267-.127-3.95-.332-1.112-.386-1.944-.238-3.685.105-1.237.153-2.785.107-3.44-.101-1.43-.076-3.817.062-5.873.14-2.082-.056-2.216-2.45-1.667-1.07.246-2.278.55-2.682.675-1.408.437-1.927-.376-1.18-1.848.417-.819 1.386-1.097 4.03-1.16l2.116-.049.367-1.058c.202-.582.441-1.885.53-2.895.163-1.826.169-1.837 1.078-2.072.75-.193.976-.15 1.262.241.192.263.29.633.216.823-.437 1.139-.441 4.545-.007 6.267.55 2.183.411 5.028-.297 6.108-.439.67-.434.776.11 2.464.505 1.573.535 1.964.28 3.604-.161 1.03-.216 2.954-.126 4.366.09 1.389.208 3.359.263 4.377.199 3.68.641 6.91 1.158 8.467.29.873.595 2.285.676 3.137s.216 1.616.298 1.698.952-.118 1.934-.443c1.715-.569 1.848-.575 3.362-.177 1.95.513 2.613.52 3.548.036.594-.307 1.117-.327 2.784-.104 1.892.253 2.097.233 2.628-.25.73-.665 2.443-1.222 3.034-.988.249.1 1.464.276 2.701.393 1.888.178 2.454.135 3.525-.27 1.025-.387 1.729-.452 3.588-.332 2.027.131 2.58.064 4.467-.547 1.185-.384 2.487-.701 2.894-.705 1.044-.01 3.401-.833 4.098-1.43.367-.315 1.235-.577 2.319-.702.952-.11 2.386-.395 3.186-.634 1.022-.305 1.949-.388 3.112-.278 1.813.17 2.413-.028 3.06-1.016.377-.575.385-.843.07-2.35-.196-.934-.474-1.927-.617-2.205-.16-.308-.182-1.281-.058-2.49.53-5.18.529-5.199-.261-6.29-.589-.812-.682-1.13-.486-1.657.302-.812.277-3.022-.089-7.796-.208-2.71-.204-4.193.015-5.526.164-1.002.238-1.882.164-1.956s-.763.054-1.53.285-3.003.5-4.967.597c-1.965.098-4.346.348-5.292.555s-2.453.49-3.349.627-2.563.548-3.704.912c-1.598.51-2.652.665-4.588.671-1.383.005-4.002.175-5.821.378-1.82.203-4.088.305-5.041.227-1.448-.118-1.923-.045-2.88.444-1.1.56-1.272.573-4.141.292-1.647-.16-3.625-.225-4.396-.144-1.248.131-1.541.058-2.675-.669-1.074-.688-1.26-.928-1.19-1.532.078-.682.173-.727 1.934-.909 1.023-.105 2.919-.065 4.234.09 2.947.348 3.347.345 5.159-.038.8-.17 1.99-.294 2.646-.278s2.143.057 3.307.091 2.772-.078 3.572-.249c3-.64 4.122-.75 5.23-.514.857.183 1.365.141 2.116-.173.544-.228 1.94-.554 3.105-.726 1.164-.17 3.248-.687 4.63-1.146 2.521-.836 3.595-.955 8.517-.937.974.004 2.021-.128 2.328-.292.417-.223.796-.22 1.496.01 1.412.466 1.632.073 1.004-1.794-.775-2.306-.92-9.091-.222-10.44.877-1.694 2.158-.25 2.203 2.481.011.682.138 1.551.283 1.932.145.38.327 1.972.405 3.537.078 1.566.245 3.495.371 4.287.137.858.124 2.505-.033 4.075-.272 2.738-.27 2.753 1.027 9.668.436 2.324.547 3.636.732 8.6.059 1.6.295 3.803.523 4.894s.417 2.58.417 3.307c0 .728.065 2.573.144 4.101s.118 3.255.087 3.837c-.103 1.995-.034 3.178.31 5.292.504 3.094.684 7.246.534 12.303a66 66 0 0 0 .085 5.027c.236 3.73.236 3.838.023 7.28-.273 4.4-.03 4.543 4.372 2.559 1.83-.824 4.661-.97 5.115-.264.448.699-.397 1.409-2.283 1.916-1.777.479-5.098 1.82-6.455 2.606-.464.27-1.152 1.013-1.527 1.654-.375.64-1.067 1.45-1.536 1.8-1.719 1.281-8.496 2.833-12.099 2.771-2.039-.035-4.389.286-7.408 1.012-2.22.534-8.273.657-10.716.217m-5.085-3.418c.578-.3 1.776-.372 5.557-.329 3.578.041 5.04-.038 5.674-.305.741-.313 1.106-.3 2.755.105 1.607.394 2.094.416 3.152.145.689-.177 1.68-.241 2.202-.143.865.162.975.113 1.228-.552.152-.402.23-.861.17-1.02-.058-.16.073-.496.29-.747.352-.403.352-.584.003-1.587a33 33 0 0 0-.575-1.555c-.12-.278.13-.799.734-1.521.505-.605 1.002-1.48 1.104-1.947.167-.758.081-.938-.8-1.678-.988-.83-.988-.83-.56-1.657.626-1.212.788-4.258.41-7.723a188 188 0 0 1-.423-4.234c-.213-2.803-.601-6.023-.834-6.918-.285-1.101-.162-1.402.662-1.61.775-.196 1.219.195 2.026 1.781.539 1.059.753 2.09 1.069 5.16.591 5.734 1.044 14.908.835 16.899-.102.965-.249 2.587-.328 3.606-.078 1.019-.313 2.183-.521 2.587s-.307.852-.219.994c.673 1.088 4.548 1.53 6.133.7.466-.245 1.31-.445 1.877-.445 1.298 0 1.824-.554 2.15-2.267.137-.717.333-1.522.435-1.787.103-.266.048-.92-.121-1.455-.17-.535-.426-3.116-.571-5.735-.309-5.58-.307-5.442-.092-7.132.127-.994.053-1.523-.303-2.184-.41-.761-.426-1.003-.132-1.897.27-.816.273-1.224.014-2.007-.2-.606-.263-1.607-.166-2.613.087-.896.185-4.266.218-7.487.045-4.532-.02-5.953-.29-6.279-.286-.344-.715-.392-2.372-.265-2.287.176-3.757.53-7.65 1.844-1.493.505-3.576 1.077-4.63 1.273-1.052.196-2.926.598-4.163.894-4.16.997-11.048 1.619-15.61 1.41-.8-.037-3.411.057-5.801.21-6.245.397-8.458.292-9.396-.446-.412-.324-.899-.59-1.08-.59-.401 0-.631 1.495-.673 4.366-.017 1.165-.16 2.929-.317 3.92-.224 1.406-.209 2.107.068 3.176.378 1.46.377 1.632-.027 6.134-.144 1.6-.275 3.386-.291 3.968-.114 4.036-.528 10.492-.727 11.353-.141.609-.538 1.27-.965 1.611q-.724.578-.556 1.017c.14.362.567.44 2.42.44 1.302 0 2.674.158 3.25.375 1.753.66 3.59.947 5.636.88 1.364-.045 2.323.07 3.042.366 2.85 1.169 5.837 1.55 7.079.901m-6.832-9.785c-.564-.564-.61-.745-.36-1.39.158-.407.33-2.229.383-4.048s.22-4.021.371-4.895c.336-1.936.356-4.703.044-5.953-.741-2.975-.863-3.884-.636-4.762.286-1.104 1.102-1.355 1.838-.566.268.288.775 1.694 1.127 3.124.533 2.168.637 3.23.62 6.38-.011 2.078-.14 4.34-.288 5.027-.147.686-.414 2.498-.593 4.026-.429 3.658-1.094 4.469-2.506 3.057m12.942-4.262c-.244-.371-.412-1.056-.373-1.52.23-2.778.097-9.496-.218-10.922-.33-1.499-.317-1.694.2-2.83.683-1.497.683-1.422-.016-2.709-.333-.613-.55-1.438-.517-1.971.066-1.096 1.177-2.655 1.89-2.655 1.168 0 1.553 1.916 1.73 8.599.049 1.892.11 3.916.136 4.498.057 1.305-.45 6.742-.77 8.263-.411 1.951-1.264 2.467-2.062 1.247m-11.384-28.816c-.899-.63-1.392-2.433-1.126-4.115.378-2.394.308-7.883-.15-11.769-.185-1.558-.17-1.606.752-2.601.517-.558 1.066-.937 1.22-.842s.212.28.13.413 0 .512.18.842.346 1.494.366 2.585c.02 1.092.182 2.986.359 4.21.25 1.732.251 2.782.007 4.723-.253 2.01-.246 2.781.036 3.957.3 1.252.295 1.56-.04 2.155-.473.843-.98.972-1.734.442m4.34-5.703c-.577-.355-.612-2.024-.058-2.756.357-.473.492-.487 1.692-.18.986.253 1.441.262 1.866.034.31-.165 1.003-.285 1.54-.266 1.635.058 2.238.034 3.825-.153 1.293-.152 1.643-.316 2.32-1.088.44-.5 1.198-1.076 1.686-1.28.618-.258 1.011-.675 1.295-1.373.224-.551.953-1.637 1.62-2.413.707-.822 1.213-1.673 1.213-2.04 0-.673.671-1.18 1.561-1.18.296 0 .665-.237.82-.528.157-.293.554-.53.89-.53.333 0 .894-.309 1.247-.686.72-.771 1.863-1.43 2.48-1.43.943 0 .292 2.213-1.093 3.716-.463.503-1.653 1.792-2.646 2.865s-2.429 2.417-3.193 2.985c-1.021.76-1.389 1.207-1.389 1.687 0 .562.121.653.873.653.48 0 1.014-.14 1.185-.311.238-.239.434-.2.836.164.691.625 2.892.375 5.264-.6l1.69-.694.5.618c.667.824.647.923-.423 2.108-.877.97-1.029 1.033-2.977 1.213-1.13.105-3.936.244-6.237.308-3.887.11-4.28.167-5.518.815-1.319.69-1.347.692-2.563.256-1.364-.488-3.098-.569-4.097-.189-1.09.414-3.705.585-4.21.275m3.799-14.115c-.226-.272-.202-1.014.097-2.977.219-1.437.429-3.146.467-3.796.057-.977.194-1.252.794-1.587.55-.308.838-.335 1.19-.114.64.4.712 1.383.325 4.47-.305 2.425-.403 2.715-1.194 3.505-.952.952-1.234 1.036-1.68.499m3.43-17.209c-.364-.439.308-4.55.945-5.786.21-.404.451-1.535.539-2.513.198-2.213.917-3.765 1.743-3.759 1.422.01 1.674 1.04 1.123 4.587-.779 5.016-2.017 7.845-3.434 7.845-.333 0-.745-.169-.916-.374m-39.267-1.016c-.397-.695-.703-1.758-.802-2.784-.088-.913-.37-2.045-.625-2.514-.368-.676-.473-1.569-.505-4.293-.023-1.891-.12-3.975-.217-4.63-.096-.655-.21-2.262-.253-3.572s-.266-3.196-.495-4.192c-.23-.996-.36-1.958-.292-2.138.176-.458 2.702-1.21 4.065-1.21.973 0 1.909-.178 3.681-.698.294-.086.275-.21-.098-.62-.255-.283-.54-.5-.63-.485-.532.09-2.51-.446-2.831-.767-.894-.893-.231-1.612 1.693-1.84.941-.112 1.661-.028 2.438.283.64.256 1.339.364 1.669.257.312-.1 2.71-.214 5.33-.252 6.417-.092 7.708-.295 8.777-1.377.516-.524.995-.79 1.245-.695.95.365 5.127-1.79 6.96-3.59.521-.513 1.225-.887 1.851-.986.556-.087 1.487-.476 2.069-.863.582-.388 1.654-.92 2.381-1.183.728-.262 1.61-.671 1.962-.909.352-.237 1.383-.847 2.292-1.357 2.79-1.564 4.444-2.793 5.962-4.432 1.435-1.55 1.738-1.709 4.111-2.15.604-.113 1.476-.523 1.939-.912.462-.39.962-.708 1.11-.708.15 0 .646-.167 1.105-.372a10 10 0 0 1 1.566-.535c.403-.09 1.702-1.056 2.887-2.147s2.408-2.048 2.718-2.126 2.04-1.742 3.843-3.698c1.804-1.956 3.358-3.557 3.453-3.557s.659-.476 1.253-1.058c.864-.848 1.274-1.059 2.052-1.059.728 0 1.15-.19 1.675-.75.605-.646.973-.775 2.67-.932 1.082-.1 2.507-.366 3.166-.59 1.79-.607 5.316-1.225 6.006-1.052.333.084 1.118-.016 1.744-.222.945-.312 1.407-.32 2.726-.044 1.408.293 1.794.273 3.42-.185 1.841-.518 2.594-.516 5.841.01 1.962.318 2.072.436 1.865 2.014-.154 1.176-.35 1.52-1.491 2.611-.722.692-1.46 1.262-1.638 1.269-.547.02-2.856 1.523-5.364 3.495-1.887 1.483-3.108 3.032-4.55 5.773-.579 1.103-1.278 2.348-1.552 2.767-.767 1.17-.617 3.48.394 6.077.453 1.164.824 2.428.825 2.809 0 .38.222.976.491 1.323 1.257 1.616 1.39 5.559.247 7.34-.34.53-.91 1.618-1.265 2.419-.873 1.964-1.32 2.646-1.73 2.646-.19 0-1.113.654-2.05 1.455-1.085.926-1.947 1.455-2.37 1.455-.366 0-.81.174-.987.387-.176.212-.578.46-.892.551-.932.269-4.966 1.723-6.392 2.304-.728.297-2.037.627-2.91.733-.874.107-2.243.458-3.043.781s-1.9.678-2.443.79c-.543.11-1.138.322-1.323.469-.184.146-.812.347-1.394.446a20 20 0 0 0-2.284.575c-.675.217-1.806.504-2.514.638-3.588.678-5.548 1.132-5.806 1.342-.156.129-1.05.348-1.984.488-.935.14-2.33.502-3.102.804-.865.338-2.032.552-3.043.558-.902.005-3.509.006-5.794.001s-4.725.112-5.424.26a60 60 0 0 1-2.99.518c-3.495.511-5.521 1.038-7.54 1.96-.436.2-1.925.683-3.307 1.073-3.854 1.087-4.749 1.369-6.706 2.109-1.63.617-3.08.928-6.43 1.383-.954.13-1.12.076-1.275-.414-.25-.786.812-2.063 1.975-2.377.51-.137 1.634-.378 2.5-.535 1.2-.218 1.795-.498 2.513-1.184.826-.789 1.151-.914 2.672-1.027.953-.07 2.138-.338 2.635-.595s1.563-.555 2.37-.662c1.611-.214 4.027-.8 6.526-1.583.891-.28 2.44-.64 3.44-.804 1-.163 2.249-.406 2.775-.542.526-.135 1.57-.245 2.32-.245s2.462-.226 3.806-.501c1.343-.276 4.407-.642 6.808-.815 4.499-.323 7.833-.855 8.304-1.326.148-.148.757-.269 1.353-.269.597 0 1.198-.1 1.336-.223.415-.367 3.04-1.078 4.976-1.346.997-.138 2.015-.433 2.261-.656s1.29-.582 2.32-.799c1.992-.419 5.489-1.716 6.613-2.452.407-.267 1.096-.42 1.725-.383.849.05 1.148-.066 1.577-.611.389-.494.778-.673 1.465-.673.995 0 4.024-1.311 4.582-1.984.184-.222.944-.58 1.689-.797 1.185-.344 1.512-.608 2.619-2.102 1.451-1.962 2.042-3.427 2.042-5.063 0-.897-.122-1.213-.557-1.447-.468-.25-.734-.172-1.654.483-1.449 1.032-2.779 1.44-4.04 1.237-.714-.114-1.539.006-2.674.388-.902.305-1.985.553-2.406.553-.475 0-1.204.35-1.927.924-.9.715-1.407.924-2.25.926-.65.002-1.343.2-1.72.49-.499.386-1.49.554-4.732.804-2.637.204-4.62.5-5.556.827-.8.28-1.813.514-2.25.519-.436.005-1.388.23-2.116.502-.727.272-2.1.57-3.048.663-.95.093-2.557.345-3.572.56s-2.357.393-2.981.395c-.625.003-1.609.246-2.187.542-.741.378-1.813.584-3.628.697-1.416.088-2.873.314-3.237.503-1.451.75-4.267 1.13-4.99.673-.833-.528.356-2.145 1.578-2.145.43 0 1.226-.188 1.767-.417.541-.23 1.877-.524 2.968-.656 3.328-.402 5.033-.771 5.762-1.25.383-.25 1.476-.532 2.428-.625.953-.093 2.443-.423 3.312-.733 1.293-.462 1.917-.534 3.44-.397 1.675.152 1.909.113 2.363-.39.316-.35.824-.56 1.36-.56.472 0 2.09-.266 3.598-.59 1.528-.33 3.676-.594 4.857-.596 1.815-.004 2.3-.108 3.407-.732.923-.52 1.66-.727 2.594-.727 1.088 0 1.423-.125 2.017-.749 1.078-1.131 3.65-2.264 5.211-2.294 1.335-.025 3.157-.506 3.774-.996.184-.146 1.017-.34 1.852-.43l1.518-.165-.044-1.26c-.025-.734-.274-1.652-.595-2.197-.304-.514-.555-1.316-.558-1.78-.006-.943-.89-3.094-1.272-3.094-.135 0-1.414-.833-2.842-1.852-1.427-1.019-2.794-1.852-3.037-1.852-.695 0-2.672-1.707-3.068-2.647-.911-2.168-.02-2.518 2.388-.936.942.618 1.908 1.32 2.147 1.56.24.24.532.435.65.435s1.061.711 2.098 1.58c1.037.868 2.035 1.52 2.219 1.45s.78-.81 1.328-1.645c2.625-4.001 4.703-6.386 6.274-7.2.51-.263 1.164-.741 1.455-1.063.29-.321.886-.767 1.323-.99s.884-.558.994-.746.555-.418.99-.513c.433-.096.852-.276.929-.4.077-.126.801-.53 1.61-.9.808-.37 1.402-.781 1.32-.913-.294-.477-2.896-.58-4.387-.174-.8.217-1.947.397-2.548.399-.6.002-1.545.192-2.098.423-.665.278-1.326.36-1.95.243-1.582-.297-5.167-.075-9.854.61-2.01.294-2.006.292-3.791 1.768a35 35 0 0 1-2.91 2.106c-.874.557-2.572 2.006-3.775 3.22s-2.542 2.39-2.976 2.615-.79.526-.79.67c0 .143-.625.675-1.39 1.182a77 77 0 0 0-2.976 2.112c-2.445 1.834-3.523 2.516-3.974 2.516-.527 0-2.4.952-3.459 1.758-.45.343-.906.624-1.012.624-.107 0-.89.535-1.741 1.19s-1.652 1.191-1.78 1.191-1.001.626-1.939 1.39c-.938.765-2.418 1.746-3.289 2.18s-2.071 1.162-2.667 1.616-1.728 1.038-2.517 1.297c-1.811.593-4.17 1.767-5.165 2.57-1.423 1.148-2.88 1.996-3.678 2.141-.808.147-1.837.694-4.883 2.592-.94.586-2.31 1.186-3.043 1.334-.734.147-1.758.39-2.276.537-.608.174-1.51.184-2.54.028-.879-.133-1.824-.153-2.1-.045-.277.109-.867.206-1.311.216-.445.01-1.397.306-2.117.658-2.109 1.03-4.74 2.006-5.43 2.016-.353.005-.939.18-1.303.388-.363.208-1.165.382-1.78.387-1.597.014-1.644.347-.933 6.624.075.655.124 2.797.11 4.76-.02 2.831.077 3.87.468 5.026.687 2.034 1.154 5.851.823 6.724-.403 1.06-1.2.882-1.952-.436m48.164-.1c-.307-.308-.21-1.786.209-3.165.217-.714.395-1.898.397-2.632.003-.851.218-1.76.598-2.513.765-1.517 1.508-1.677 2.155-.465.435.814.44 1.037.064 3.352-.288 1.777-.562 2.65-.966 3.08-.31.33-.764 1-1.008 1.488-.43.86-1.067 1.236-1.449.854"
            style="fill:#000;stroke-width:.264583" transform="translate(-76.817 171.908)" />
</svg>