<?xml version="1.0" encoding="utf-8"?>
<!-- Generator: Adobe Illustrator 25.2.3, SVG Export Plug-In . SVG Version: 6.00 Build 0)  -->
<svg version="1.1" id="Layer_1" xmlns="http://www.w3.org/2000/svg" xmlns:xlink="http://www.w3.org/1999/xlink" x="0px" y="0px"
	 viewBox="0 0 612 792" style="enable-background:new 0 0 612 792;" xml:space="preserve">
    <style type="text/css">
	.st0{fill:#53260E;}
	.st1{fill:none;stroke:#020202;stroke-width:6;stroke-miterlimit:10;}
	.st2{fill:#FFFFFF;stroke:#020202;stroke-width:9;stroke-miterlimit:10;}
	.st3{fill:none;stroke:#000000;stroke-miterlimit:10;}
	.st4{fill:#B19239;stroke:#000000;stroke-miterlimit:10;}
	.st5{fill:#482F14;}
	.st6{fill:#805E2F;stroke:#000000;stroke-miterlimit:10;}
	.st7{opacity:0.35;fill:#482F14;}
	.st8{opacity:0.32;fill:#482F14;}
</style>
    <rect x="0px" y="0px" width="612px" height="792px" fill="rgba(0,255,0,.2)"/>

<circle class="st0" cx="313.63" cy="456.84" r="57.29"/>
<polyline class="st1" points="197.29,526.12 236.32,478.53 300.01,485.04 "/>
<polyline class="st1" points="188.38,466.32 227.41,418.73 285.28,437.08 "/>
<polyline class="st1" points="190.1,351.51 257.21,359.38 296.92,422.72 "/>
<polyline class="st1" points="346.79,438.53 400.48,392.43 422.58,432.65 "/>
<polyline class="st1" points="329.95,484.01 390.05,480.59 421.21,526.12 "/>
<polyline class="st1" points="335.69,422.72 383.55,373.99 370.91,332.45 "/>
<circle class="st2" cx="329.98" cy="394.86" r="15.51"/>
<circle class="st2" cx="291" cy="394.86" r="15.51"/>
<g>
	<path class="st3" d="M327.98,341.96"/>
	<path class="st4" d="M352.32,326.99c0,0,5.64-34.22,2.7-39.63s-5.41-6.7-5.41-6.7c-4-2.7-14.82-2.12-14.82-2.12
		c-4.23-4.47-9.88-6-9.88-6s-8.74-3.24-15.17-0.82c-6.43,2.41-9.06,6.82-9.06,6.82s-4.35,9.06-10.35,25.4l-0.45,1.06l15.95,20.42
		l23.04,16.97c0,0,25.35,10.59,36.59,7.99c11.24-2.59,14.87-5.71,19.19-12.1c4.32-6.4,0-12.45,0-12.45s-5.24-7.9-14.87-4.32
		C361.52,324.58,352.32,326.99,352.32,326.99z"/>
	<path class="st5" d="M292.29,298.74c0,0,12.55,13.16,31.08,18.28c18.53,5.12,29.38,3.17,29.38,3.17l-0.42,6.79
		c0,0-20.77,2.83-35.61-3.93c-14.84-6.76-19.82-10.27-19.82-10.27l-7-7.78L292.29,298.74z"/>
	<path class="st6" d="M284.11,296.42c0,0-4.23-6.23-8.11-8.35c-3.88-2.12-7.53-2.7-7.53-2.7s-3.88,0.24-5.17,1.41
		c-1.29,1.18-6.7,5.53-2.59,17.29s27.99,24.7,27.99,24.7s3.41,2,16.23,6.7s23.05,6.5,23.05,6.5S288.93,308.41,284.11,296.42z"/>
	<path class="st7" d="M334.8,278.54l6.32,5.77c0,0,0.16-5.73,1.53-5.56C344.02,278.91,334.8,278.54,334.8,278.54z"/>
	<path class="st8" d="M331.19,275.53c0,0-11.71,2.99-16.53,17.67s-10.31,27.09-10.31,27.09l-14.45-15.29c0,0,9.82-26.31,10.8-26.47
		C301.68,278.38,309,263.34,331.19,275.53z"/>
</g>
</svg>
